<?xml version="1.0" encoding="UTF-8"?>
<svg width="287px" height="54px" viewBox="0 0 287 54" version="1.1" xmlns="http://www.w3.org/2000/svg" xmlns:xlink="http://www.w3.org/1999/xlink">
    <!-- Generator: Sketch 43.2 (39069) - http://www.bohemiancoding.com/sketch -->
    <title>logo</title>
    <desc>Created with Sketch.</desc>
    <defs>
        <path d="M126.629146,5.139 C123.229213,8.055 121.529811,11.66175 121.529811,15.960375 C121.529811,18.432 122.11285,20.5695 123.278929,22.372875 C124.446138,24.17625 125.959102,25.58475 127.820083,26.59725 C129.681063,27.610875 131.740909,28.48725 133.998492,29.228625 C136.257205,29.971125 138.502358,30.61125 140.736213,31.15575 C142.968937,31.699125 145.003925,32.26725 146.841177,32.860125 C151.060303,34.194375 153.168736,36.27 153.168736,39.085875 C153.168736,44.818875 148.826449,47.68425 140.140744,47.68425 C133.540874,47.68425 127.658504,46.252125 122.497024,43.385625 L122.12528,43.385625 L122.12528,49.982625 C127.782795,52.651125 133.73861,53.985375 139.991594,53.985375 C146.245709,53.985375 151.122449,52.63875 154.620685,49.9455 C158.118921,47.253375 159.868039,43.781625 159.868039,39.531375 C159.868039,36.468 159.087264,33.910875 157.523453,31.86 C155.960772,29.809125 154.012787,28.339875 151.68063,27.45 C149.347343,26.560125 146.80389,25.732125 144.050272,24.967125 C141.294394,24.201 138.750941,23.558625 136.417654,23.038875 C134.085496,22.52025 132.137512,21.618 130.574831,20.33325 C129.01102,19.0485 128.230244,17.418375 128.230244,15.442875 C128.230244,12.774375 129.470898,10.686375 131.952205,9.178875 C134.433512,7.671375 137.821016,6.917625 142.113587,6.917625 C146.406157,6.917625 150.886295,7.858125 155.55061,9.734625 L156.071504,9.734625 L156.071504,3.434625 C151.407189,1.656 146.183563,0.766125 140.401756,0.766125 C134.618819,0.766125 130.029079,2.224125 126.629146,5.139 Z M235.355819,53.244 L260.956445,1.463625 L286.500575,53.244 L235.355819,53.244 Z M260.890909,15.019875 L244.920602,47.5605 L276.931272,47.5605 L261.040059,15.019875 L260.890909,15.019875 Z M217.191205,1.5075 L199.101165,45.757125 L198.952016,45.757125 L180.863106,1.5075 L170.291563,1.5075 L170.291563,53.244 L177.065441,53.244 L177.065441,8.623125 L177.140016,8.623125 L195.528354,53.244 L202.525957,53.244 L220.83972,8.623125 L220.98774,8.623125 L220.98774,53.244 L227.761618,53.244 L227.761618,1.5075 L217.191205,1.5075 Z M103.216047,53.244 L109.991055,53.244 L109.991055,1.5075 L103.216047,1.5075 L103.216047,53.244 Z M50.2114409,1.5075 L70.9070787,1.5075 C77.6560984,1.5075 82.7192756,2.89125 86.0932205,5.65875 C89.4682953,8.42625 91.1552677,12.05775 91.1552677,16.554375 C91.1552677,19.56825 90.3372047,22.273875 88.6988189,24.670125 C87.061563,27.066375 84.6785591,28.809 81.5531969,29.89575 L81.5531969,30.043125 C87.4095787,31.5765 90.3372047,37.1835 90.3372047,46.86975 L90.3372047,48.648375 C90.3372047,50.230125 90.7586654,51.66225 91.6027165,52.947 L91.6027165,53.244 L84.6051142,53.244 C83.9102126,52.10775 83.5621969,50.772375 83.5621969,49.24125 L83.5621969,48.0555 C83.5621969,43.509375 83.0898898,40.3965 82.1475354,38.716875 C81.7012165,37.827 81.105748,36.887625 80.3622598,35.899875 C78.8221772,34.02225 76.1679921,33.082875 72.395185,33.082875 L56.9864488,33.082875 L56.9864488,53.244 L50.2114409,53.244 L50.2114409,1.5075 Z M56.9864488,7.88175 L56.9864488,26.708625 L70.4607598,26.708625 C74.7284724,26.708625 78.1159764,25.86825 80.6221417,24.188625 C83.1283071,22.509 84.3813898,20.161125 84.3813898,17.14725 C84.3813898,14.133375 83.302315,11.835 81.1430354,10.25325 C78.9837559,8.672625 75.2990827,7.88175 70.0878858,7.88175 L56.9864488,7.88175 Z M0.406771654,1.5075 L20.7317953,1.5075 C24.3034764,1.5075 27.4310984,1.989 30.1101417,2.953125 C32.7914449,3.91725 34.8625906,5.214375 36.3269685,6.8445 C37.7913465,8.47575 38.8704213,10.21725 39.5653228,12.070125 C40.2602244,13.923 40.6082402,15.88725 40.6082402,17.962875 C40.6082402,20.0385 40.2602244,22.00275 39.5653228,23.855625 C38.8704213,25.7085 37.7913465,27.45 36.3269685,29.08125 C34.8625906,30.71025 32.7914449,32.007375 30.1101417,32.9715 C27.4310984,33.935625 24.3034764,34.417125 20.7317953,34.417125 L7.18177953,34.417125 L7.18177953,53.244 L0.406771654,53.244 L0.406771654,1.5075 Z M7.18177953,7.88175 L7.18177953,28.042875 L20.061752,28.042875 C25.1237992,28.042875 28.6841811,27.07875 30.7440276,25.151625 C32.8027441,23.225625 33.8332323,20.82825 33.8332323,17.962875 C33.8332323,15.096375 32.8027441,12.699 30.7440276,10.773 C28.6841811,8.845875 25.1237992,7.88175 20.061752,7.88175 L7.18177953,7.88175 Z" id="path-1"></path>
    </defs>
    <g id="Site" stroke="none" stroke-width="1" fill="none" fill-rule="evenodd">
        <g id="Desktop-alt" transform="translate(-372.000000, -465.000000)">
            <g id="logo" transform="translate(372.000000, 465.000000)">
                <mask id="mask-2" fill="white">
                    <use xlink:href="#path-1"></use>
                </mask>
                <g id="Clip-2"></g>
                <polygon id="Fill-1" fill="#545B6D" mask="url(#mask-2)" points="-5.24170472 59.610375 292.150181 59.610375 292.150181 -4.858875 -5.24170472 -4.858875"></polygon>
            </g>
        </g>
    </g>
</svg>